<svg viewBox="0 0 400 400" xmlns="http://www.w3.org/2000/svg">
  <rect width="400" height="400" fill="#0d0d0d"/>
  <circle cx="320" cy="60" r="55" fill="#1a1a2e" opacity="0.7"/>
  <circle cx="55" cy="340" r="40" fill="#1a1a2e" opacity="0.6"/>
  <!-- Central gear large -->
  <circle cx="200" cy="180" r="55" fill="none" stroke="#7c6aaa" stroke-width="4"/>
  <circle cx="200" cy="180" r="35" fill="#1e1b30" stroke="#5b4f8a" stroke-width="2"/>
  <circle cx="200" cy="180" r="18" fill="#7c6aaa"/>
  <!-- Gear teeth -->
  <rect x="191" y="120" width="18" height="16" rx="4" fill="#7c6aaa"/>
  <rect x="191" y="224" width="18" height="16" rx="4" fill="#7c6aaa"/>
  <rect x="130" y="171" width="16" height="18" rx="4" fill="#7c6aaa"/>
  <rect x="254" y="171" width="16" height="18" rx="4" fill="#7c6aaa"/>
  <rect x="148" y="133" width="14" height="14" rx="3" fill="#7c6aaa" transform="rotate(45 155 140)"/>
  <rect x="238" y="133" width="14" height="14" rx="3" fill="#7c6aaa" transform="rotate(45 245 140)"/>
  <rect x="148" y="213" width="14" height="14" rx="3" fill="#7c6aaa" transform="rotate(45 155 220)"/>
  <rect x="238" y="213" width="14" height="14" rx="3" fill="#7c6aaa" transform="rotate(45 245 220)"/>
  <!-- Lightning bolt in center gear -->
  <polygon points="205,165 196,182 202,182 195,198 210,178 203,178" fill="#f5c518"/>
  <!-- Small gear top left -->
  <circle cx="90" cy="100" r="28" fill="none" stroke="#5b7bc4" stroke-width="3"/>
  <circle cx="90" cy="100" r="14" fill="#1e1b30" stroke="#5b7bc4" stroke-width="2"/>
  <circle cx="90" cy="100" r="7" fill="#5b7bc4"/>
  <rect x="84" y="68" width="12" height="10" rx="3" fill="#5b7bc4"/>
  <rect x="84" y="122" width="12" height="10" rx="3" fill="#5b7bc4"/>
  <rect x="58" y="94" width="10" height="12" rx="3" fill="#5b7bc4"/>
  <rect x="112" y="94" width="10" height="12" rx="3" fill="#5b7bc4"/>
  <!-- Small gear top right -->
  <circle cx="320" cy="110" r="22" fill="none" stroke="#c4b8dc" stroke-width="2.5"/>
  <circle cx="320" cy="110" r="11" fill="#1e1b30" stroke="#c4b8dc" stroke-width="1.5"/>
  <circle cx="320" cy="110" r="5" fill="#c4b8dc"/>
  <rect x="315" y="84" width="10" height="9" rx="3" fill="#c4b8dc"/>
  <rect x="315" y="127" width="10" height="9" rx="3" fill="#c4b8dc"/>
  <rect x="294" y="105" width="9" height="10" rx="3" fill="#c4b8dc"/>
  <rect x="337" y="105" width="9" height="10" rx="3" fill="#c4b8dc"/>
  <!-- Connection lines -->
  <line x1="118" y1="115" x2="155" y2="148" stroke="#7c6aaa" stroke-width="2" stroke-dasharray="5,4"/>
  <line x1="298" y1="120" x2="252" y2="152" stroke="#c4b8dc" stroke-width="2" stroke-dasharray="5,4"/>
  <!-- CRM cards / workflow boxes -->
  <rect x="40" y="250" width="80" height="45" rx="8" fill="#1e1b30" stroke="#5b7bc4" stroke-width="1.5"/>
  <circle cx="60" cy="268" r="10" fill="#5b7bc4" opacity="0.6"/>
  <rect x="75" y="263" width="38" height="6" rx="3" fill="#c4b8dc" opacity="0.6"/>
  <rect x="75" y="275" width="26" height="5" rx="2" fill="#7c6aaa" opacity="0.5"/>
  <rect x="50" y="280" width="60" height="5" rx="2" fill="#3a3a5a"/>
  <!-- Arrow between cards -->
  <line x1="122" y1="272" x2="148" y2="272" stroke="#f5c518" stroke-width="2" stroke-linecap="round"/>
  <polygon points="148,272 140,267 140,277" fill="#f5c518"/>
  <rect x="150" y="250" width="80" height="45" rx="8" fill="#1e1b30" stroke="#7c6aaa" stroke-width="1.5"/>
  <circle cx="170" cy="268" r="10" fill="#7c6aaa" opacity="0.7"/>
  <rect x="185" y="263" width="38" height="6" rx="3" fill="#c4b8dc" opacity="0.6"/>
  <rect x="185" y="275" width="26" height="5" rx="2" fill="#5b7bc4" opacity="0.5"/>
  <!-- Arrow -->
  <line x1="232" y1="272" x2="258" y2="272" stroke="#f5c518" stroke-width="2" stroke-linecap="round"/>
  <polygon points="258,272 250,267 250,277" fill="#f5c518"/>
  <rect x="260" y="250" width="80" height="45" rx="8" fill="#1e1b30" stroke="#c4b8dc" stroke-width="1.5"/>
  <circle cx="280" cy="268" r="10" fill="#c4b8dc" opacity="0.5"/>
  <rect x="295" y="263" width="38" height="6" rx="3" fill="#c4b8dc" opacity="0.6"/>
  <rect x="295" y="275" width="26" height="5" rx="2" fill="#7c6aaa" opacity="0.5"/>
  <!-- Person -->
  <circle cx="200" cy="328" r="20" fill="#f5c518"/>
  <rect x="184" y="350" width="32" height="38" rx="8" fill="#c4960a"/>
  <rect x="176" y="355" width="12" height="26" rx="5" fill="#c4960a"/>
  <rect x="208" y="355" width="12" height="26" rx="5" fill="#c4960a"/>
  <!-- Plants -->
  <rect x="22" y="360" width="7" height="16" rx="3" fill="#3a5a3a"/>
  <ellipse cx="26" cy="350" rx="10" ry="14" fill="#4a7a4a" opacity="0.8"/>
  <rect x="368" y="360" width="7" height="16" rx="3" fill="#3a5a3a"/>
  <ellipse cx="372" cy="350" rx="10" ry="14" fill="#4a7a4a" opacity="0.8"/>
</svg>
