<svg viewBox="0 0 400 400" xmlns="http://www.w3.org/2000/svg">
  <rect width="400" height="400" fill="#0d0d0d"/>
  <circle cx="55" cy="65" r="50" fill="#1a1a2e" opacity="0.7"/>
  <circle cx="345" cy="330" r="45" fill="#1a1a2e" opacity="0.6"/>
  <!-- Globe -->
  <circle cx="200" cy="155" r="80" fill="none" stroke="#7c6aaa" stroke-width="2"/>
  <circle cx="200" cy="155" r="80" fill="#1a1830" opacity="0.5"/>
  <!-- Globe meridians/parallels -->
  <ellipse cx="200" cy="155" rx="40" ry="80" fill="none" stroke="#5b4f8a" stroke-width="1.2"/>
  <ellipse cx="200" cy="155" rx="70" ry="80" fill="none" stroke="#5b4f8a" stroke-width="1" opacity="0.6"/>
  <line x1="120" y1="155" x2="280" y2="155" stroke="#5b4f8a" stroke-width="1.2"/>
  <path d="M 120 115 Q 200 130 280 115" fill="none" stroke="#5b4f8a" stroke-width="1" opacity="0.6"/>
  <path d="M 120 195 Q 200 180 280 195" fill="none" stroke="#5b4f8a" stroke-width="1" opacity="0.6"/>
  <!-- Highlighted continents (simplified blobs) -->
  <ellipse cx="165" cy="140" rx="22" ry="18" fill="#7c6aaa" opacity="0.5"/>
  <ellipse cx="215" cy="148" rx="16" ry="14" fill="#5b7bc4" opacity="0.5"/>
  <ellipse cx="240" cy="165" rx="14" ry="10" fill="#7c6aaa" opacity="0.4"/>
  <ellipse cx="175" cy="168" rx="10" ry="12" fill="#5b7bc4" opacity="0.4"/>
  <!-- Location pins on globe -->
  <circle cx="168" cy="132" r="5" fill="#f5c518"/>
  <line x1="168" y1="127" x2="168" y2="118" stroke="#f5c518" stroke-width="1.5"/>
  <circle cx="216" cy="145" r="5" fill="#f5c518"/>
  <line x1="216" y1="140" x2="216" y2="131" stroke="#f5c518" stroke-width="1.5"/>
  <circle cx="195" cy="170" r="4" fill="#c4b8dc"/>
  <line x1="195" y1="166" x2="195" y2="158" stroke="#c4b8dc" stroke-width="1.5"/>
  <!-- Person left -->
  <circle cx="75" cy="275" r="24" fill="#5b7bc4"/>
  <rect x="57" y="302" width="36" height="50" rx="8" fill="#3a5499"/>
  <rect x="49" y="307" width="14" height="34" rx="6" fill="#3a5499"/>
  <!-- Handshake area center -->
  <!-- Right arm left person -->
  <rect x="93" y="295" width="50" height="12" rx="6" fill="#3a5499"/>
  <!-- Left arm right person -->
  <rect x="257" y="295" width="50" height="12" rx="6" fill="#c4960a"/>
  <!-- Hands meeting in center -->
  <ellipse cx="200" cy="301" rx="20" ry="12" fill="#7c6aaa" opacity="0.8"/>
  <path d="M185 297 Q200 290 215 297" fill="none" stroke="#f5c518" stroke-width="2.5" stroke-linecap="round"/>
  <!-- Person right -->
  <circle cx="325" cy="275" r="24" fill="#f5c518"/>
  <rect x="307" y="302" width="36" height="50" rx="8" fill="#c4960a"/>
  <rect x="337" y="307" width="14" height="34" rx="6" fill="#c4960a"/>
  <!-- Middle person -->
  <circle cx="200" cy="270" r="20" fill="#c4b8dc"/>
  <rect x="184" y="293" width="32" height="44" rx="7" fill="#9b85c4"/>
  <!-- Briefcase center person -->
  <rect x="187" y="328" width="26" height="18" rx="4" fill="#3a3a5a" stroke="#7c6aaa" stroke-width="1"/>
  <rect x="193" y="324" width="14" height="6" rx="3" fill="#5b4f8a"/>
  <!-- Light bulb top -->
  <circle cx="200" cy="50" r="22" fill="#f5c518"/>
  <rect x="193" y="70" width="14" height="12" rx="4" fill="#c4960a"/>
  <path d="M190 50 Q200 36 210 50" fill="none" stroke="white" stroke-width="2.5"/>
  <line x1="196" y1="58" x2="196" y2="64" stroke="white" stroke-width="1.5"/>
  <line x1="204" y1="58" x2="204" y2="64" stroke="white" stroke-width="1.5"/>
  <!-- Target icon right -->
  <circle cx="345" cy="120" r="28" fill="none" stroke="#5b7bc4" stroke-width="2"/>
  <circle cx="345" cy="120" r="18" fill="none" stroke="#7c6aaa" stroke-width="2"/>
  <circle cx="345" cy="120" r="8" fill="#f5c518"/>
  <!-- Plants -->
  <rect x="22" y="358" width="7" height="18" rx="3" fill="#3a5a3a"/>
  <ellipse cx="26" cy="346" rx="11" ry="15" fill="#4a7a4a" opacity="0.8"/>
  <ellipse cx="16" cy="352" rx="9" ry="12" fill="#3a6a3a" opacity="0.7"/>
  <rect x="368" y="358" width="7" height="18" rx="3" fill="#3a5a3a"/>
  <ellipse cx="372" cy="346" rx="11" ry="15" fill="#4a7a4a" opacity="0.8"/>
</svg>
