<svg viewBox="0 0 400 400" xmlns="http://www.w3.org/2000/svg">
  <rect width="400" height="400" fill="#0d0d0d"/>
  <circle cx="55" cy="65" r="50" fill="#1a1a2e" opacity="0.7"/>
  <circle cx="345" cy="340" r="42" fill="#1a1a2e" opacity="0.6"/>
  <!-- Dashboard screen -->
  <rect x="55" y="80" width="290" height="190" rx="12" fill="#1e1b30" stroke="#7c6aaa" stroke-width="2"/>
  <rect x="63" y="88" width="274" height="174" rx="8" fill="#12102a"/>
  <!-- Dashboard top bar -->
  <rect x="63" y="88" width="274" height="22" rx="8" fill="#1e1b30"/>
  <circle cx="76" cy="99" r="4" fill="#e05a5a"/>
  <circle cx="89" cy="99" r="4" fill="#f5c518"/>
  <circle cx="102" cy="99" r="4" fill="#5ac45a"/>
  <rect x="130" y="94" width="80" height="10" rx="5" fill="#2a2750" stroke="#7c6aaa" stroke-width="0.8"/>
  <!-- KPI cards row -->
  <rect x="70" y="118" width="72" height="40" rx="6" fill="#1e1b30" stroke="#5b7bc4" stroke-width="1"/>
  <text x="84" y="133" font-size="14" fill="#f5c518" font-family="sans-serif" font-weight="bold">↑ 42%</text>
  <rect x="70" y="145" width="72" height="6" rx="2" fill="#5b7bc4" opacity="0.4"/>
  <rect x="150" y="118" width="72" height="40" rx="6" fill="#1e1b30" stroke="#7c6aaa" stroke-width="1"/>
  <text x="160" y="133" font-size="14" fill="#c4b8dc" font-family="sans-serif" font-weight="bold">3.2K</text>
  <rect x="150" y="145" width="72" height="6" rx="2" fill="#7c6aaa" opacity="0.4"/>
  <rect x="230" y="118" width="98" height="40" rx="6" fill="#1e1b30" stroke="#c4b8dc" stroke-width="1"/>
  <text x="244" y="133" font-size="14" fill="#5ac45a" font-family="sans-serif" font-weight="bold">€ 18K</text>
  <rect x="230" y="145" width="98" height="6" rx="2" fill="#c4b8dc" opacity="0.3"/>
  <!-- Line chart -->
  <rect x="70" y="166" width="150" height="80" rx="6" fill="#1a1830" stroke="#5b4f8a" stroke-width="1"/>
  <polyline points="80,230 100,215 120,220 140,200 160,205 180,188 200,192 210,182" fill="none" stroke="#7c6aaa" stroke-width="2" stroke-linecap="round"/>
  <polyline points="80,235 100,228 120,232 140,218 160,222 180,210 200,215 210,205" fill="none" stroke="#5b7bc4" stroke-width="1.5" stroke-linecap="round" stroke-dasharray="4,3"/>
  <polygon points="210,182 214,178 214,186" fill="#f5c518"/>
  <!-- Bar chart right -->
  <rect x="230" y="166" width="98" height="80" rx="6" fill="#1a1830" stroke="#5b4f8a" stroke-width="1"/>
  <rect x="240" y="205" width="12" height="34" rx="3" fill="#5b4f8a"/>
  <rect x="256" y="195" width="12" height="44" rx="3" fill="#7c6aaa"/>
  <rect x="272" y="185" width="12" height="54" rx="3" fill="#9b85c4"/>
  <rect x="288" y="192" width="12" height="47" rx="3" fill="#7c6aaa"/>
  <rect x="304" y="178" width="12" height="61" rx="3" fill="#f5c518"/>
  <!-- Person left pointing -->
  <circle cx="78" cy="308" r="22" fill="#5b7bc4"/>
  <rect x="60" y="333" width="36" height="45" rx="8" fill="#3a5499"/>
  <rect x="52" y="338" width="14" height="30" rx="6" fill="#3a5499"/>
  <!-- Arm pointing up to screen -->
  <rect x="88" y="315" width="45" height="10" rx="5" fill="#3a5499" transform="rotate(-35 110 320)"/>
  <!-- Magnifying glass over chart -->
  <circle cx="280" cy="310" r="30" fill="none" stroke="#7c6aaa" stroke-width="2.5" opacity="0.6"/>
  <circle cx="280" cy="310" r="22" fill="#1e1b30" opacity="0.7"/>
  <!-- Mini chart in magnifier -->
  <polyline points="262,315 270,308 278,311 290,302 298,306" fill="none" stroke="#f5c518" stroke-width="2" stroke-linecap="round"/>
  <line x1="304" y1="330" x2="318" y2="344" stroke="#7c6aaa" stroke-width="4" stroke-linecap="round"/>
  <!-- Document/report -->
  <rect x="308" y="265" width="60" height="75" rx="6" fill="#1e1b30" stroke="#c4b8dc" stroke-width="1.5"/>
  <rect x="316" y="274" width="44" height="6" rx="3" fill="#c4b8dc" opacity="0.6"/>
  <rect x="316" y="284" width="34" height="4" rx="2" fill="#7c6aaa" opacity="0.5"/>
  <rect x="316" y="293" width="38" height="4" rx="2" fill="#5b7bc4" opacity="0.4"/>
  <rect x="316" y="302" width="44" height="4" rx="2" fill="#c4b8dc" opacity="0.3"/>
  <rect x="316" y="315" width="20" height="14" rx="3" fill="#f5c518" opacity="0.8"/>
  <!-- Plants -->
  <rect x="22" y="360" width="7" height="16" rx="3" fill="#3a5a3a"/>
  <ellipse cx="26" cy="349" rx="10" ry="14" fill="#4a7a4a" opacity="0.8"/>
  <rect x="368" y="360" width="7" height="16" rx="3" fill="#3a5a3a"/>
  <ellipse cx="372" cy="349" rx="10" ry="14" fill="#4a7a4a" opacity="0.8"/>
</svg>
